<?xml version="1.0" encoding="utf-8"?>
<!-- Generator: Adobe Illustrator 21.0.0, SVG Export Plug-In . SVG Version: 6.00 Build 0)  -->
<svg version="1.1" id="Layer_1" xmlns="http://www.w3.org/2000/svg" xmlns:xlink="http://www.w3.org/1999/xlink" x="0px" y="0px"
	 viewBox="0 0 189 55.1" style="enable-background:new 0 0 189 55.1;" xml:space="preserve">
<style type="text/css">
	.st0{fill:#ED7402;}
	.st1{fill:#F8B97F;}
	.st2{fill:#131108;}
	.st3{font-family:'MyriadPro-Regular';}
	.st4{font-size:18px;}
</style>
<path class="st0" d="M23.3,0L0,14.1V41l6.1,3.6V17.7L23.3,7.2l17.3,10.5l0.1,0l0,26.8l6-3.5V14.1C46.7,14.1,23.3,0,23.3,0z"/>
<path class="st1" d="M12.2,21.5 M26.4,16.5v9.9 M46.7,14.1L23.3,0L0,14.1l6.1,3.6L23.3,7.2l17.4,10.5C40.7,17.7,46.7,14.1,46.7,14.1
	z"/>
<path class="st2" d="M186.5,24.8c-1.3,0-2.3-0.9-2.3-2.3c0-1.4,0.9-2.3,2.3-2.3c1.3,0,2.3,0.9,2.3,2.3
	C188.8,23.9,187.8,24.8,186.5,24.8z M186.5,20.4c-1.1,0-1.9,0.7-1.9,2.1c0,1.3,0.9,2,1.9,2c1.1,0,1.9-0.7,1.9-2
	C188.4,21.2,187.6,20.4,186.5,20.4L186.5,20.4z M187.1,23.7l-0.8-1.1h-0.2v1.1h-0.4v-2.6h0.8c0.5,0,0.9,0.3,0.9,0.8
	c0,0.4-0.2,0.6-0.5,0.7l0.7,1L187.1,23.7z M186.5,21.5h-0.3v0.8h0.3c0.3,0,0.5-0.1,0.5-0.4C186.9,21.7,186.8,21.5,186.5,21.5z"/>
<text transform="matrix(1 0 0 1 53 37)" class="st3 st4">DHIMAL E-SHOP</text>
</svg>
